<svg width="12" height="40" viewBox="0 0 12 40" fill="none" xmlns="http://www.w3.org/2000/svg">
<path d="M0.28125 3.14062C1.09375 2.57812 2.27344 2.07813 3.82031 1.64062C5.36719 1.1875 6.83594 0.960938 8.22656 0.960938C9.39844 0.960938 10.3516 1.14063 11.0859 1.5C11.0859 4.01562 10.9375 7.17188 10.6406 10.9688C10.3438 14.75 9.92969 19.3594 9.39844 24.7969C9.07031 25.3594 8.55469 25.8125 7.85156 26.1562C7.16406 26.4844 6.42969 26.6484 5.64844 26.6484C5.05469 26.6484 4.48438 26.5469 3.9375 26.3438C3.39062 26.1406 2.91406 25.8359 2.50781 25.4297L0.28125 3.14062ZM6 29.6016C8.0625 29.6016 9.5625 30.0547 10.5 30.9609C11.4531 31.8516 11.9297 32.9766 11.9297 34.3359C11.9297 35.2422 11.6406 36.0938 11.0625 36.8906C10.5 37.6719 9.75781 38.2969 8.83594 38.7656C7.92969 39.2344 6.98438 39.4688 6 39.4688C5.01562 39.4688 4.0625 39.2344 3.14062 38.7656C2.23438 38.2969 1.49219 37.6719 0.914062 36.8906C0.351562 36.0938 0.0703125 35.2422 0.0703125 34.3359C0.0703125 32.9766 0.539062 31.8516 1.47656 30.9609C2.42969 30.0547 3.9375 29.6016 6 29.6016Z" fill="white"/>
</svg>
